<?xml version="1.0" encoding="iso-8859-1"?>
<!-- Generator: Adobe Illustrator 18.0.0, SVG Export Plug-In . SVG Version: 6.00 Build 0)  -->
<!DOCTYPE svg PUBLIC "-//W3C//DTD SVG 1.1//EN" "http://www.w3.org/Graphics/SVG/1.1/DTD/svg11.dtd">
<svg version="1.1" id="Capa_1" xmlns="http://www.w3.org/2000/svg" xmlns:xlink="http://www.w3.org/1999/xlink" x="0px" y="0px"
	 viewBox="0 0 330 330" style="enable-background:new 0 0 330 330;" xml:space="preserve">
<path d="M315,130h-85V85c0-8.284-6.716-15-15-15H115c-8.284,0-15,6.716-15,15v15H15c-8.284,0-15,6.716-15,15v130
	c0,8.284,6.716,15,15,15h100h100h100c8.284,0,15-6.716,15-15V145C330,136.716,323.284,130,315,130z M30,130h70v100H30V130z M130,115
	v-15h70v45v85h-70V115z M300,230h-70v-70h70V230z"/>
<g>
</g>
<g>
</g>
<g>
</g>
<g>
</g>
<g>
</g>
<g>
</g>
<g>
</g>
<g>
</g>
<g>
</g>
<g>
</g>
<g>
</g>
<g>
</g>
<g>
</g>
<g>
</g>
<g>
</g>
</svg>
